<?xml version="1.0" standalone="no"?>
<!DOCTYPE svg PUBLIC "-//W3C//DTD SVG 20010904//EN"
 "http://www.w3.org/TR/2001/REC-SVG-20010904/DTD/svg10.dtd">
<svg version="1.0" xmlns="http://www.w3.org/2000/svg"
 width="1768.000000pt" height="1768.000000pt" viewBox="0 0 1768.000000 1768.000000"
 preserveAspectRatio="xMidYMid meet">
<metadata>
Created by potrace 1.11, written by Peter Selinger 2001-2013
</metadata>
<g transform="translate(0.000000,1768.000000) scale(0.100000,-0.100000)"
fill="#000000" stroke="none">
<path d="M6257 15834 c-1 -1 -85 -5 -187 -9 -102 -3 -202 -8 -223 -10 -21 -1
-84 -6 -140 -10 -56 -3 -115 -8 -132 -10 -16 -2 -65 -7 -108 -10 -43 -4 -88
-8 -100 -10 -27 -4 -95 -13 -167 -20 -44 -5 -238 -35 -455 -70 -65 -11 -243
-47 -295 -60 -30 -8 -66 -16 -80 -18 -52 -9 -348 -89 -460 -123 -372 -115
-657 -226 -1000 -392 -19 -9 -47 -25 -62 -35 -16 -10 -28 -16 -28 -13 0 3 -67
-32 -148 -78 -583 -328 -1028 -687 -1497 -1207 -34 -38 -70 -79 -168 -194 -72
-85 -307 -410 -307 -424 0 -5 -3 -11 -7 -13 -5 -2 -23 -28 -42 -58 -294 -475
-477 -931 -567 -1408 -10 -58 -24 -140 -28 -172 -3 -19 -7 -55 -11 -80 -56
-415 -28 -933 71 -1325 25 -99 94 -317 115 -362 10 -24 19 -45 19 -48 0 -20
141 -307 184 -375 81 -128 185 -277 243 -350 86 -108 310 -333 388 -391 33
-24 62 -46 65 -49 30 -33 302 -186 390 -220 231 -88 406 -121 650 -125 338 -5
582 62 835 230 81 54 194 158 251 231 175 222 218 579 100 819 -78 156 -213
242 -431 270 -55 7 -188 7 -247 0 -114 -13 -269 -71 -361 -133 -54 -38 -154
-134 -191 -185 -65 -88 -107 -220 -107 -334 -1 -248 110 -409 316 -459 17 -4
37 -9 45 -11 8 -3 74 -6 145 -7 165 -4 183 -8 191 -51 11 -62 -37 -110 -146
-144 -71 -21 -203 -34 -355 -34 -268 1 -480 50 -709 165 -496 248 -926 833
-1062 1448 -33 151 -39 191 -59 390 -5 51 -6 365 -1 450 8 144 36 372 59 485
2 11 7 38 11 60 44 255 188 662 336 948 93 182 263 454 354 569 12 14 32 41
46 59 24 32 163 202 185 225 138 153 233 250 394 404 92 87 346 299 444 370
27 19 57 42 66 50 9 8 46 35 81 59 36 25 67 47 70 50 19 22 381 256 440 286
11 5 20 13 20 17 0 5 4 8 8 8 5 0 65 32 133 71 563 321 1212 584 1859 753 96
25 186 47 200 50 14 2 45 9 70 15 68 17 121 29 160 37 14 2 48 9 76 15 28 5
64 12 80 15 16 3 76 13 134 24 115 20 359 57 430 64 25 3 72 8 105 11 33 3 67
8 75 10 8 2 53 7 100 10 47 3 96 8 110 10 14 2 72 7 130 10 58 4 123 8 145 10
70 6 495 18 635 18 135 0 504 -11 570 -18 19 -2 80 -6 135 -10 55 -4 114 -8
130 -10 17 -1 64 -6 105 -9 41 -4 91 -9 110 -11 19 -3 60 -7 90 -10 62 -6 142
-15 180 -20 14 -2 50 -6 80 -10 30 -3 66 -8 80 -10 14 -2 45 -7 70 -10 25 -4
56 -8 70 -10 280 -43 375 -58 475 -75 113 -20 151 -26 278 -50 28 -5 66 -12
82 -15 17 -3 50 -10 75 -15 25 -5 70 -14 100 -19 30 -6 66 -13 80 -16 14 -2
81 -17 150 -31 69 -14 136 -28 150 -31 56 -10 396 -86 555 -125 118 -28 165
-44 155 -50 -8 -5 -73 -44 -145 -86 -226 -135 -444 -287 -577 -404 -34 -29
-70 -61 -81 -71 -98 -84 -244 -240 -317 -337 -19 -25 -37 -47 -40 -50 -13 -12
-92 -132 -133 -202 -133 -226 -223 -486 -254 -740 -10 -81 -10 -407 0 -473 47
-302 176 -564 382 -771 49 -50 113 -108 140 -130 28 -21 52 -42 55 -45 27 -31
279 -179 390 -229 101 -45 101 -46 -12 -60 -57 -7 -110 -13 -119 -15 -8 -1
-40 -6 -70 -9 -30 -4 -65 -8 -79 -11 -14 -2 -90 -13 -170 -25 -183 -27 -183
-27 -315 -50 -60 -11 -128 -22 -150 -26 -34 -5 -91 -15 -320 -60 -11 -2 -31
-6 -45 -9 -14 -3 -34 -7 -45 -9 -11 -3 -62 -14 -112 -25 -51 -12 -133 -30
-182 -41 -104 -23 -414 -102 -515 -131 -39 -11 -80 -23 -91 -26 -58 -15 -268
-81 -400 -125 -82 -27 -154 -51 -160 -52 -5 -2 -17 -6 -25 -9 -8 -3 -85 -31
-170 -62 -85 -31 -168 -63 -185 -70 -16 -7 -93 -39 -170 -70 -494 -202 -1102
-535 -1485 -813 -229 -168 -490 -379 -625 -507 -216 -205 -336 -329 -495 -515
-12 -14 -31 -36 -43 -50 -112 -129 -324 -434 -435 -625 -223 -386 -388 -845
-443 -1235 -5 -41 -12 -85 -14 -96 -25 -155 -26 -576 -1 -749 68 -473 276
-917 602 -1285 445 -503 1049 -884 1829 -1153 72 -24 139 -47 150 -50 11 -3
69 -19 128 -37 60 -17 116 -33 125 -36 9 -2 84 -21 166 -41 l149 -37 60 -76
c59 -75 95 -119 159 -195 80 -95 314 -321 408 -395 25 -19 47 -37 50 -40 29
-30 218 -161 339 -235 86 -52 360 -195 374 -195 3 0 34 -13 69 -29 35 -15 110
-45 168 -66 58 -20 114 -41 125 -45 11 -5 31 -11 45 -14 14 -3 84 -21 155 -40
110 -29 229 -55 370 -81 32 -6 149 -21 230 -30 28 -3 66 -8 85 -10 226 -25
787 -25 965 0 17 2 58 7 92 10 85 8 310 37 381 49 9 2 35 7 57 11 40 7 58 10
105 18 20 4 243 48 310 62 8 2 35 8 60 15 25 7 52 14 61 15 10 2 68 18 130 35
198 55 337 122 361 175 14 31 3 71 -25 90 -30 19 -125 5 -203 -31 -177 -81
-527 -189 -704 -218 -19 -3 -71 -12 -115 -20 -68 -12 -188 -29 -380 -52 -213
-25 -1070 -25 -1113 0 -4 2 -41 7 -81 10 -41 4 -77 9 -80 11 -4 2 -31 6 -61 9
-30 4 -62 8 -70 11 -8 2 -33 7 -55 10 -22 4 -44 8 -50 9 -5 1 -37 8 -70 15
-82 17 -286 75 -389 111 -426 148 -823 394 -1116 691 -135 137 -213 226 -284
321 l-27 36 28 -3 c87 -12 125 -16 193 -21 41 -3 89 -7 105 -9 189 -27 984
-27 1315 0 87 7 198 17 230 20 19 2 62 7 95 10 33 4 67 8 75 10 8 2 42 7 75
10 75 8 98 12 260 39 50 9 101 18 115 21 14 3 41 8 60 11 311 51 935 228 1295
369 284 111 372 149 660 291 263 129 515 269 705 392 91 58 314 206 325 215 6
4 71 51 145 104 119 86 212 157 330 252 67 55 245 205 279 235 189 173 378
364 496 501 28 32 57 65 66 74 35 35 214 270 293 385 152 222 278 451 380 692
48 114 127 338 141 399 2 11 15 63 29 115 13 52 27 113 30 135 4 22 8 47 11
55 4 15 8 40 20 135 4 28 9 61 11 75 33 212 23 629 -21 830 -3 14 -8 38 -10
53 -12 66 -79 249 -127 347 -251 518 -761 887 -1421 1029 -92 20 -113 24 -204
36 -21 3 -56 8 -78 11 -22 3 -58 8 -80 9 -22 2 -77 6 -123 10 -157 13 -580 8
-759 -10 -21 -2 -74 -7 -118 -10 -44 -3 -87 -8 -95 -10 -8 -2 -44 -7 -80 -10
-36 -3 -72 -8 -80 -10 -8 -2 -40 -7 -70 -10 -30 -3 -62 -8 -70 -10 -8 -2 -35
-7 -60 -10 -25 -4 -79 -13 -120 -21 -41 -8 -86 -17 -100 -20 -14 -2 -65 -14
-115 -25 -49 -12 -98 -22 -107 -24 -71 -14 -344 -94 -513 -150 -379 -125 -849
-337 -1190 -538 -181 -106 -457 -278 -475 -297 -3 -3 -32 -23 -65 -45 -33 -22
-62 -42 -65 -45 -3 -3 -36 -28 -75 -55 -59 -41 -206 -153 -344 -263 -38 -29
-226 -188 -252 -212 -9 -8 -54 -49 -100 -90 -99 -88 -442 -431 -515 -516 -29
-32 -71 -81 -94 -109 -23 -27 -52 -62 -65 -76 -104 -120 -402 -543 -449 -639
-4 -8 -18 -33 -31 -55 -46 -76 -213 -421 -248 -510 -19 -49 -38 -99 -42 -110
-5 -11 -9 -24 -11 -30 -1 -5 -10 -30 -19 -55 -49 -133 -129 -445 -149 -585 -2
-16 -7 -50 -11 -75 -12 -80 -14 -94 -19 -145 -19 -171 -25 -509 -12 -626 4
-30 9 -76 12 -104 23 -217 75 -441 151 -640 32 -86 103 -243 123 -275 33 -52
58 -110 47 -110 -40 0 -308 84 -472 147 -244 94 -607 301 -733 417 -23 21 -51
45 -62 53 -42 30 -186 182 -253 268 -63 81 -157 219 -157 230 0 2 -13 26 -28
52 -36 61 -106 222 -138 316 -26 77 -79 285 -88 352 -4 22 -9 54 -11 70 -33
197 -38 643 -10 830 3 17 7 55 10 85 3 30 7 66 10 79 2 12 6 42 9 65 3 22 12
74 20 113 9 40 18 87 21 105 3 17 8 34 10 38 2 4 7 22 10 41 20 115 114 399
203 614 41 99 178 362 251 484 71 117 233 357 251 371 3 3 17 20 30 39 69 99
276 334 426 485 112 113 299 286 379 351 20 17 47 40 60 52 14 12 42 34 62 50
21 15 40 31 43 34 5 7 198 154 255 194 15 11 48 35 74 54 66 50 428 287 546
358 334 202 805 448 1193 624 95 44 175 79 177 79 2 0 32 13 67 28 35 16 99
44 143 62 44 18 94 38 110 45 29 12 235 93 360 140 291 111 835 269 1095 319
14 2 45 9 70 14 25 6 65 13 90 17 25 4 63 10 85 15 67 16 111 11 284 -26 202
-44 196 -42 246 -50 22 -3 58 -9 80 -14 22 -5 60 -11 85 -14 25 -4 74 -11 110
-16 93 -14 128 -18 190 -25 30 -3 69 -8 85 -10 148 -19 608 -27 758 -13 157
15 268 65 282 127 28 129 -186 220 -590 249 -205 14 -793 7 -1045 -13 -25 -2
-81 -6 -125 -9 -123 -9 -216 -17 -258 -21 -69 -7 -220 108 -320 243 -51 69
-124 215 -134 265 -3 18 -10 40 -14 49 -5 9 -11 34 -14 55 -3 21 -8 45 -11 53
-19 55 -26 432 -11 555 70 550 308 1017 738 1444 218 217 517 442 836 630 l73
43 312 -76 c172 -42 329 -80 348 -85 40 -11 53 -14 515 -122 312 -73 986 -225
1045 -236 14 -2 86 -18 160 -34 74 -16 146 -32 160 -34 14 -3 34 -7 45 -9 69
-14 586 -116 615 -121 19 -3 85 -14 146 -25 61 -11 129 -22 150 -25 21 -3 62
-10 89 -15 28 -5 68 -12 90 -15 22 -3 54 -8 70 -10 17 -3 48 -7 70 -10 46 -5
119 -15 155 -21 14 -2 48 -6 75 -9 28 -3 66 -7 85 -10 204 -24 619 -25 760 -1
14 3 48 7 75 11 28 3 68 10 90 15 22 5 51 11 65 14 51 9 167 49 230 78 183 85
309 230 339 388 3 19 6 82 5 140 0 94 -4 114 -32 185 -38 95 -120 208 -206
283 -126 110 -337 236 -546 325 -158 67 -490 179 -630 213 -126 29 -326 73
-365 79 -27 5 -54 9 -60 11 -23 5 -194 33 -240 39 -133 17 -188 24 -255 30
-30 3 -75 7 -100 10 -211 21 -408 29 -760 29 -379 0 -653 -12 -885 -39 -22 -3
-62 -7 -90 -9 -104 -10 -372 -49 -490 -71 -16 -3 -45 -8 -62 -10 -18 -3 -54
-10 -80 -16 -27 -6 -57 -12 -68 -15 -434 -85 -1081 -299 -1409 -466 l-48 -25
-202 49 c-110 26 -210 50 -221 53 -44 9 -63 14 -145 33 -47 11 -139 32 -205
47 -66 14 -147 32 -180 40 -95 22 -214 47 -803 166 -24 5 -64 11 -90 15 -26 3
-49 7 -52 9 -12 7 -673 121 -810 140 -25 3 -72 10 -105 15 -83 13 -110 17
-320 45 -66 8 -133 17 -150 19 -16 3 -61 8 -100 11 -38 4 -78 9 -87 11 -9 1
-48 5 -85 9 -37 3 -84 8 -103 10 -19 3 -66 7 -105 10 -38 4 -88 8 -110 10 -40
3 -209 16 -275 20 -218 14 -912 28 -923 19z m8844 -318 c173 -8 236 -12 309
-21 25 -3 72 -8 105 -10 33 -3 70 -7 82 -9 12 -3 48 -7 79 -11 31 -3 109 -15
173 -27 64 -11 125 -22 136 -23 11 -2 50 -10 86 -19 37 -8 78 -17 90 -20 122
-23 432 -121 617 -195 394 -157 633 -356 671 -558 32 -171 -51 -342 -209 -431
-70 -39 -198 -85 -270 -96 -19 -3 -48 -8 -65 -11 -95 -16 -188 -20 -430 -20
-270 0 -566 13 -691 30 -23 3 -72 8 -110 10 -64 5 -96 9 -184 20 -19 2 -60 7
-90 10 -30 4 -62 8 -70 10 -8 2 -40 6 -71 10 -31 3 -65 7 -75 9 -11 2 -41 7
-68 10 -27 4 -86 14 -133 22 -46 8 -100 17 -121 20 -30 5 -288 52 -382 70 -32
6 -170 35 -190 39 -8 2 -49 11 -90 20 -41 9 -82 18 -90 20 -8 2 -46 11 -85 19
-86 20 -81 19 -240 57 -71 17 -206 52 -300 76 -93 25 -177 46 -185 48 -129 26
-1100 323 -1100 336 0 16 358 182 535 248 157 59 230 86 235 86 3 0 19 5 35
12 138 53 633 175 805 197 25 3 56 8 70 11 25 5 66 11 155 21 28 3 57 7 65 9
8 2 51 7 95 10 44 4 96 8 115 10 19 2 100 6 180 10 80 4 146 8 147 8 4 4 314
-1 464 -7z m-2066 -5669 c11 -3 43 -8 70 -11 323 -42 632 -153 873 -314 30
-20 63 -41 72 -47 51 -32 176 -142 254 -224 28 -30 59 -63 70 -74 40 -42 145
-208 188 -297 72 -148 108 -279 133 -475 7 -54 7 -295 1 -360 -18 -180 -21
-203 -56 -360 -84 -389 -265 -782 -537 -1168 -46 -65 -88 -124 -93 -130 -6 -7
-32 -40 -59 -75 -58 -73 -116 -143 -151 -182 -14 -16 -56 -63 -95 -106 -93
-104 -300 -310 -410 -409 -50 -44 -99 -89 -111 -100 -11 -11 -47 -42 -80 -70
-32 -27 -61 -52 -64 -55 -8 -9 -246 -199 -340 -272 -47 -36 -153 -113 -235
-172 -83 -58 -155 -110 -160 -114 -57 -47 -568 -369 -695 -439 -30 -16 -91
-50 -135 -75 -81 -46 -469 -246 -483 -249 -4 0 -45 -19 -92 -41 -47 -22 -103
-47 -125 -55 -22 -9 -44 -20 -49 -25 -6 -4 -16 -8 -23 -8 -7 0 -38 -12 -70
-26 -314 -144 -1045 -364 -1393 -419 -19 -3 -43 -8 -52 -11 -23 -7 -44 -11
-103 -18 -27 -4 -90 -13 -140 -21 -49 -8 -119 -17 -155 -20 -36 -3 -72 -8 -80
-10 -8 -2 -53 -7 -100 -10 -47 -4 -93 -9 -103 -11 -28 -5 -376 -17 -502 -18
-60 0 -175 4 -255 8 -153 8 -165 9 -275 21 -38 4 -86 9 -105 11 -19 2 -46 6
-60 9 -14 3 -45 7 -70 10 -25 3 -52 7 -60 10 -8 2 -37 7 -65 10 -27 3 -77 11
-110 18 l-59 12 -76 147 c-41 81 -80 162 -87 180 -50 142 -93 267 -97 288 -47
214 -51 258 -51 500 0 260 6 323 60 625 26 142 142 522 196 640 10 22 29 68
44 103 31 75 129 272 180 362 21 36 49 85 63 110 40 72 141 227 217 333 38 54
77 109 85 121 19 27 103 139 110 146 3 3 32 39 65 80 139 174 366 421 577 627
123 121 149 145 258 243 40 36 80 72 89 80 9 9 48 43 86 75 39 33 72 62 75 65
12 14 274 223 370 296 480 365 970 660 1442 869 56 25 112 50 123 55 39 18
200 83 225 90 14 5 72 25 130 45 90 32 229 76 280 90 86 24 330 85 350 89 23
4 102 19 160 31 14 3 42 7 64 10 21 3 41 7 45 9 4 3 34 8 66 11 33 4 67 8 75
10 17 3 114 14 180 21 25 2 92 7 150 10 58 4 107 8 109 10 5 5 503 -3 526 -9z"/>
</g>
</svg>
